<svg xmlns="http://www.w3.org/2000/svg" width="14" height="18" viewBox="0 0 14 18" fill="none">
  <path d="M12.0002 9.98268V7.33268C11.999 6.15195 11.58 5.00974 10.8173 4.10833C10.0547 3.20692 8.99771 2.60447 7.8335 2.40768V1.49935C7.8335 1.27834 7.7457 1.06637 7.58942 0.910093C7.43314 0.753813 7.22118 0.666016 7.00016 0.666016C6.77915 0.666016 6.56719 0.753813 6.41091 0.910093C6.25463 1.06637 6.16683 1.27834 6.16683 1.49935V2.40768C5.00261 2.60447 3.9456 3.20692 3.18298 4.10833C2.42037 5.00974 2.00136 6.15195 2.00016 7.33268V9.98268C1.51387 10.1546 1.09266 10.4727 0.794278 10.8935C0.495895 11.3142 0.334946 11.8169 0.333496 12.3327V13.9993C0.333496 14.2204 0.421294 14.4323 0.577574 14.5886C0.733854 14.7449 0.945816 14.8327 1.16683 14.8327H3.7835C3.9754 15.5388 4.39433 16.1622 4.97566 16.6066C5.55699 17.0511 6.26841 17.2918 7.00016 17.2918C7.73192 17.2918 8.44334 17.0511 9.02466 16.6066C9.60599 16.1622 10.0249 15.5388 10.2168 14.8327H12.8335C13.0545 14.8327 13.2665 14.7449 13.4228 14.5886C13.579 14.4323 13.6668 14.2204 13.6668 13.9993V12.3327C13.6654 11.8169 13.5044 11.3142 13.206 10.8935C12.9077 10.4727 12.4865 10.1546 12.0002 9.98268ZM3.66683 7.33268C3.66683 6.44863 4.01802 5.60078 4.64314 4.97566C5.26826 4.35054 6.11611 3.99935 7.00016 3.99935C7.88422 3.99935 8.73206 4.35054 9.35719 4.97566C9.98231 5.60078 10.3335 6.44863 10.3335 7.33268V9.83268H3.66683V7.33268ZM7.00016 15.666C6.70931 15.6643 6.42397 15.5864 6.17252 15.4402C5.92107 15.294 5.71225 15.0846 5.56683 14.8327H8.4335C8.28807 15.0846 8.07926 15.294 7.8278 15.4402C7.57635 15.5864 7.29102 15.6643 7.00016 15.666ZM12.0002 13.166H2.00016V12.3327C2.00016 12.1117 2.08796 11.8997 2.24424 11.7434C2.40052 11.5871 2.61248 11.4993 2.8335 11.4993H11.1668C11.3878 11.4993 11.5998 11.5871 11.7561 11.7434C11.9124 11.8997 12.0002 12.1117 12.0002 12.3327V13.166Z" fill="#006DF9"/>
</svg>