<svg xmlns="http://www.w3.org/2000/svg" width="11" height="8" viewBox="0 0 11 8" fill="none">
  <path d="M10.2458 1.1924C10.0584 1.00615 9.80498 0.901611 9.5408 0.901611C9.27661 0.901611 9.02316 1.00615 8.8358 1.1924L5.2458 4.7324L1.7058 1.1924C1.51844 1.00615 1.26498 0.901611 1.0008 0.901611C0.736612 0.901611 0.483161 1.00615 0.295798 1.1924C0.20207 1.28537 0.127675 1.39597 0.0769067 1.51783C0.026138 1.63969 0 1.77039 0 1.9024C0 2.03442 0.026138 2.16512 0.0769067 2.28698C0.127675 2.40884 0.20207 2.51944 0.295798 2.6124L4.5358 6.8524C4.62876 6.94613 4.73936 7.02053 4.86122 7.07129C4.98308 7.12206 5.11379 7.1482 5.2458 7.1482C5.37781 7.1482 5.50852 7.12206 5.63037 7.07129C5.75223 7.02053 5.86283 6.94613 5.9558 6.8524L10.2458 2.6124C10.3395 2.51944 10.4139 2.40884 10.4647 2.28698C10.5155 2.16512 10.5416 2.03442 10.5416 1.9024C10.5416 1.77039 10.5155 1.63969 10.4647 1.51783C10.4139 1.39597 10.3395 1.28537 10.2458 1.1924Z" fill="#8E8E8E"/>
</svg>