<svg xmlns="http://www.w3.org/2000/svg" width="20" height="20" viewBox="0 0 20 20" fill="none">
  <path d="M15.0002 10.9827V8.33268C14.999 7.15195 14.58 6.00974 13.8173 5.10833C13.0547 4.20692 11.9977 3.60447 10.8335 3.40768V2.49935C10.8335 2.27834 10.7457 2.06637 10.5894 1.91009C10.4331 1.75381 10.2212 1.66602 10.0002 1.66602C9.77915 1.66602 9.56719 1.75381 9.41091 1.91009C9.25463 2.06637 9.16683 2.27834 9.16683 2.49935V3.40768C8.00261 3.60447 6.9456 4.20692 6.18298 5.10833C5.42037 6.00974 5.00136 7.15195 5.00016 8.33268V10.9827C4.51387 11.1546 4.09266 11.4727 3.79428 11.8935C3.49589 12.3142 3.33495 12.8169 3.3335 13.3327V14.9993C3.3335 15.2204 3.42129 15.4323 3.57757 15.5886C3.73385 15.7449 3.94582 15.8327 4.16683 15.8327H6.7835C6.9754 16.5388 7.39433 17.1622 7.97566 17.6066C8.55699 18.0511 9.26841 18.2918 10.0002 18.2918C10.7319 18.2918 11.4433 18.0511 12.0247 17.6066C12.606 17.1622 13.0249 16.5388 13.2168 15.8327H15.8335C16.0545 15.8327 16.2665 15.7449 16.4228 15.5886C16.579 15.4323 16.6668 15.2204 16.6668 14.9993V13.3327C16.6654 12.8169 16.5044 12.3142 16.206 11.8935C15.9077 11.4727 15.4865 11.1546 15.0002 10.9827ZM6.66683 8.33268C6.66683 7.44863 7.01802 6.60078 7.64314 5.97566C8.26826 5.35054 9.11611 4.99935 10.0002 4.99935C10.8842 4.99935 11.7321 5.35054 12.3572 5.97566C12.9823 6.60078 13.3335 7.44863 13.3335 8.33268V10.8327H6.66683V8.33268ZM10.0002 16.666C9.70931 16.6643 9.42397 16.5864 9.17252 16.4402C8.92107 16.294 8.71225 16.0846 8.56683 15.8327H11.4335C11.2881 16.0846 11.0793 16.294 10.8278 16.4402C10.5764 16.5864 10.291 16.6643 10.0002 16.666ZM15.0002 14.166H5.00016V13.3327C5.00016 13.1117 5.08796 12.8997 5.24424 12.7434C5.40052 12.5871 5.61248 12.4993 5.8335 12.4993H14.1668C14.3878 12.4993 14.5998 12.5871 14.7561 12.7434C14.9124 12.8997 15.0002 13.1117 15.0002 13.3327V14.166Z" fill="white"/>
</svg>